# xmcd CD database file
#
# Track frame offsets:
#	150
#	16363
#	27577
#	40773
#	59901
#	73237
#	90655
#	100333
#	115076
#	132946
#	150806
#	165719
#	177585
#	188528
#
# Disc length: 2684 seconds
#
# Revision: 0
# Processed by: cddbd v1.5.1PL0 Copyright (c) Steve Scherf et al.
# Submitted via: CDex 1.50beta8
#
DISCID=bb0a7a0e
DTITLE=Petticoat Junction - Lonely Old Depot
DYEAR=1900
DGENRE=Bluegrass
TTITLE0=I'd Miss You
TTITLE1=I Want To Be Loved
TTITLE2=What's Good For You
TTITLE3=Mornnig Train
TTITLE4=Bending The Strings
TTITLE5=My Brown-eyed Darling
TTITLE6=Out of Sight, Out of Mind
TTITLE7=What a Change One Day Can Make
TTITLE8=Weary Day
TTITLE9=Will My Heart Go on From Here
TTITLE10=Carolina Cookout
TTITLE11=I'll Never Take No for an Answer
TTITLE12=I'm Safely in the Arms of Jesus
TTITLE13=Lonely Old Depot
EXTD=
EXTT0=
EXTT1=
EXTT2=
EXTT3=
EXTT4=
EXTT5=
EXTT6=
EXTT7=
EXTT8=
EXTT9=
EXTT10=
EXTT11=
EXTT12=
EXTT13=
PLAYORDER=
